#!OML:ASF I:\Actors\actors\Patient Classification 2\Patient 1\Session 1\actor1.ASF
:FULLY-SPECIFIED
:DEGREES
278
root -0.981512 18.1554 5.77756 -1.25284 0.990876 -5.06173
lowerback 3.53235 1.76426 3.38259
upperback 0.80991 2.49125 1.30783
thorax -1.06145 1.23745 -0.659567
lowerneck -9.82806 3.4165 1.66816
upperneck 33.1042 7.94829 -9.38404
head 13.2236 2.59315 -2.84239
rclavicle 7.37367e-015 -1.64991e-014
rhumerus -18.0956 39.26 -96.0155
rradius 105.339
rwrist -12.7645
rhand -33.5254 -33.3534
rfingers 7.12502
rthumb -6.72142 -423.227
lclavicle 7.37367e-015 -1.64991e-014
lhumerus -20.4198 -18.4346 100.863
lradius 97.0287
lwrist 78.3254
lhand -15.8578 -13.1408
lfingers 7.12502
lthumb 10.3373 16.5851
rfemur 0 0 0
rtibia 0
rfoot 0 0
rtoes 0
lfemur 18.8404 -6.85025 -12.0352
ltibia -19.5209
lfoot -1.84112 19.7153
ltoes -14.6106
279
root -0.974113 18.1605 5.77238 -1.16479 0.907464 -5.04693
lowerback 3.5656 1.84045 3.48379
upperback 0.766721 2.59831 1.23791
thorax -1.1128 1.28937 -0.793923
lowerneck -9.74454 3.38904 1.74193
upperneck 33.0729 7.94914 -9.56459
head 13.2054 2.58494 -2.92765
rclavicle 1.94126e-014 6.75868e-015
rhumerus -18.2163 39.4853 -96.1993
rradius 105.231
rwrist -12.523
rhand -34.0468 -33.0811
rfingers 7.12502
rthumb -7.2247 -422.938
lclavicle 1.94126e-014 6.75868e-015
lhumerus -20.4162 -18.4979 100.83
lradius 96.9866
lwrist 78.6434
lhand -15.8035 -13.2139
lfingers 7.12502
lthumb 10.3897 16.5094
rfemur 0 0 0
rtibia 0
rfoot 0 0
rtoes 0
lfemur 18.7652 -6.86489 -12.0899
ltibia -19.5706
lfoot -1.84322 19.8175
ltoes -14.5149
280
root -0.95127 18.173 5.75921 -0.915797 0.473352 -5.00001
lowerback 3.50249 2.00212 3.73459
upperback 0.739614 2.81901 1.13708
thorax -1.07953 1.39899 -1.04348
lowerneck -9.75674 3.40358 1.83721
upperneck 32.9806 8.01595 -9.79199
head 13.191 2.60114 -3.02248
rclavicle -3.52284e-014 -1.37161e-014
rhumerus -18.1194 39.7829 -96.2135
rradius 104.983
rwrist -12.2575
rhand -34.3293 -32.9196
rfingers 7.12502
rthumb -7.49747 -422.767
lclavicle -3.52284e-014 -1.37161e-014
lhumerus -20.262 -18.5282 100.813
lradius 96.9247
lwrist 78.6366
lhand -15.7407 -13.2453
lfingers 7.12502
lthumb 10.4503 16.475
rfemur 0 0 0
rtibia 0
rfoot 0 0
rtoes 0
lfemur 18.5617 -7.1678 -12.3171
ltibia -19.5957
lfoot -2.05196 20.5744
ltoes -13.8973
281
root -0.9736 18.1606 5.77346 -1.1914 0.998423 -5.03985
lowerback 3.10997 1.82605 3.1376
upperback 1.11902 2.53787 1.37555
thorax -0.520075 1.27126 -0.433448
lowerneck -9.94426 3.4517 1.80955
upperneck 32.8294 8.1742 -10.0753
head 13.1971 2.63117 -3.09999
rclavicle -4.96962e-016 -1.26228e-014
rhumerus -17.7669 40.3156 -95.8818
rradius 104.651
rwrist -12.2423
rhand -34.6488 -32.4678
rfingers 7.12502
rthumb -7.8058 -422.304
lclavicle -4.96962e-016 -1.26228e-014
lhumerus -19.8298 -18.4637 100.854
lradius 96.8472
lwrist 78.3545
lhand -15.8199 -13.2422
lfingers 7.12502
lthumb 10.3739 16.4819
rfemur 0 0 0
rtibia 0
rfoot 0 0
rtoes 0
lfemur 18.7952 -6.95419 -12.1067
ltibia -19.6079
lfoot -1.8167 19.8392
ltoes -14.4321
282
root -0.981065 18.1566 5.77879 -1.28676 1.1814 -5.07441
lowerback 3.36974 1.83705 3.10836
upperback 0.990669 2.56662 1.35441
thorax -0.79653 1.28091 -0.452205
lowerneck -9.77329 3.39931 1.75792
upperneck 32.9099 8.13794 -10.1255
head 13.1926 2.60717 -3.12137
rclavicle 1.0138e-014 4.37326e-015
rhumerus -18.3317 40.4057 -96.2593
rradius 104.28
rwrist -12.1509
rhand -34.9277 -32.1991
rfingers 7.12502
rthumb -8.07504 -422.025
lclavicle 1.0138e-014 4.37326e-015
lhumerus -20.1001 -18.6166 100.981
lradius 96.8423
lwrist 78.4023
lhand -15.8543 -13.195
lfingers 7.12502
lthumb 10.3407 16.5308
rfemur 0 0 0
rtibia 0
rfoot 0 0
rtoes 0
lfemur 18.8705 -6.87962 -12.0124
ltibia -19.6022
lfoot -1.73307 19.5796
ltoes -14.5103
283
root -0.98134 18.1563 5.78016 -1.28795 1.19858 -5.07574
lowerback 3.26352 1.83919 2.96538
upperback 1.07179 2.55878 1.43261
thorax -0.664053 1.27932 -0.286596
lowerneck -9.82481 3.4011 1.70173
upperneck 32.8671 8.22361 -10.3393
head 13.2047 2.61186 -3.18244
rclavicle -2.71403e-014 -1.50082e-014
rhumerus -18.3302 40.8477 -96.1923
rradius 103.714
rwrist -12.1416
rhand -35.0624 -32.2354
rfingers 7.12502
rthumb -8.20499 -422.056
lclavicle -2.71403e-014 -1.50082e-014
lhumerus -19.9626 -18.4933 101.053
lradius 96.8295
lwrist 78.5611
lhand -15.5581 -13.1747
lfingers 7.12502
lthumb 10.6264 16.5366
rfemur 0 0 0
rtibia 0
rfoot 0 0
rtoes 0
lfemur 18.8583 -6.88793 -12.0199
ltibia -19.5896
lfoot -1.63825 19.5771
ltoes -14.9357
284
root -0.973861 18.1607 5.77759 -1.17877 1.03139 -5.05483
lowerback 3.14151 1.89643 2.98305
upperback 1.09861 2.62958 1.43081
thorax -0.565549 1.31611 -0.295462
lowerneck -9.89178 3.43105 1.71176
upperneck 32.8837 8.32778 -10.5061
head 13.2474 2.63605 -3.23588
rclavicle 2.90847e-014 1.74931e-014
rhumerus -18.1976 41.2624 -96.0569
rradius 102.954
rwrist -12.2494
rhand -34.9713 -32.0956
rfingers 7.12502
rthumb -8.1171 -421.92
lclavicle 2.90847e-014 1.74931e-014
lhumerus -19.8794 -18.4678 101.102
lradius 96.8546
lwrist 78.5418
lhand -15.0566 -13.2369
lfingers 7.12502
lthumb 11.1102 16.449
rfemur 0 0 0
rtibia 0
rfoot 0 0
rtoes 0
lfemur 18.7562 -6.93998 -12.1029
ltibia -19.5854
lfoot -1.59748 19.81
ltoes -15.2688
285
root -0.950917 18.1747 5.76642 -0.885977 0.502447 -5.01348
lowerback 3.12612 2.08113 3.32787
upperback 0.970757 2.88762 1.2879
thorax -0.656635 1.44294 -0.64411
lowerneck -9.88582 3.46266 1.82626
upperneck 32.9425 8.4103 -10.6597
head 13.2938 2.66655 -3.30861
rclavicle -2.55314e-015 -6.55989e-015
rhumerus -18.0711 41.5508 -95.9484
rradius 102.115
rwrist -12.5868
rhand -34.5492 -32.0891
rfingers 7.12502
rthumb -7.70968 -421.929
lclavicle -2.55314e-015 -6.55989e-015
lhumerus -19.92 -18.5289 101.096
lradius 96.9005
lwrist 78.6361
lhand -14.6929 -13.2107
lfingers 7.12502
lthumb 11.461 16.4561
rfemur 0 0 0
rtibia 0
rfoot 0 0
rtoes 0
lfemur 18.5288 -7.21586 -12.316
ltibia -19.5789
lfoot -1.95862 20.6393
ltoes -14.3675
286
root -0.971561 18.1646 5.78179 -1.15519 0.960911 -5.07024
lowerback 3.07051 1.94255 3.01698
upperback 1.10713 2.6882 1.36758
thorax -0.510923 1.34626 -0.377919
lowerneck -9.87689 3.47419 1.92846
upperneck 32.9415 8.45381 -10.8052
head 13.3089 2.68118 -3.37945
rclavicle -6.83322e-015 -7.95139e-016
rhumerus -17.8997 41.8478 -95.7616
rradius 101.424
rwrist -13.1683
rhand -34.1869 -32.63
rfingers 7.12502
rthumb -7.35998 -422.482
lclavicle -6.83322e-015 -7.95139e-016
lhumerus -19.9226 -18.5563 101.059
lradius 96.9419
lwrist 78.7512
lhand -14.5981 -13.0996
lfingers 7.12502
lthumb 11.5523 16.562
rfemur 0 0 0
rtibia 0
rfoot 0 0
rtoes 0
lfemur 18.7977 -7.10206 -12.0946
ltibia -19.5879
lfoot -2.04147 20.0782
ltoes -13.841
287
root -0.978256 18.1623 5.78855 -1.23177 1.07653 -5.09794
lowerback 3.16336 1.92895 2.96934
upperback 1.07636 2.67334 1.34764
thorax -0.596083 1.33752 -0.375663
lowerneck -9.81692 3.44901 1.9393
upperneck 32.9714 8.41638 -10.8004
head 13.3052 2.668 -3.38694
rclavicle -1.83627e-014 -4.57205e-015
rhumerus -17.9281 41.9704 -95.6628
rradius 101.08
rwrist -13.7573
rhand -34.0675 -33.2596
rfingers 7.12502
rthumb -7.24471 -423.116
lclavicle -1.83627e-014 -4.57205e-015
lhumerus -20.0733 -18.6702 101.073
lradius 96.9902
lwrist 78.6309
lhand -14.9122 -13.0738
lfingers 7.12502
lthumb 11.2494 16.6045
rfemur 0 0 0
rtibia 0
rfoot 0 0
rtoes 0
lfemur 18.9053 -7.07956 -12.0145
ltibia -19.6216
lfoot -2.10999 19.9515
ltoes -13.3072
288
root -0.977664 18.1628 5.79102 -1.22026 1.03707 -5.06557
lowerback 3.41446 1.98703 3.06566
upperback 0.914097 2.7677 1.23072
thorax -0.889965 1.37952 -0.565858
lowerneck -9.67848 3.40819 1.94827
upperneck 33.0399 8.33443 -10.7177
head 13.2916 2.64628 -3.37164
rclavicle -1.85553e-014 -1.15295e-014
rhumerus -18.2067 41.7656 -95.7399
rradius 101.203
rwrist -14.1539
rhand -33.9587 -33.6614
rfingers 7.12502
rthumb -7.13974 -423.521
lclavicle -1.85553e-014 -1.15295e-014
lhumerus -20.38 -18.8642 101.118
lradius 97.0473
lwrist 78.4229
lhand -15.2885 -13.0898
lfingers 7.12502
lthumb 10.8865 16.608
rfemur 0 0 0
rtibia 0
rfoot 0 0
rtoes 0
lfemur 18.9514 -7.03008 -12.0541
ltibia -19.704
lfoot -2.07517 19.9687
ltoes -13.1438
289
root -0.976196 18.163 5.79358 -1.22633 1.05838 -5.04368
lowerback 3.54636 2.00984 3.13946
upperback 0.85313 2.80697 1.15173
thorax -1.01751 1.39668 -0.696007
lowerneck -9.58621 3.3947 1.98721
upperneck 33.014 8.29802 -10.7076
head 13.257 2.64075 -3.37988
rclavicle -4.76338e-014 -1.39149e-015
rhumerus -18.4184 41.3703 -95.7626
rradius 101.764
rwrist -14.2976
rhand -33.881 -33.7617
rfingers 7.12502
rthumb -7.06466 -423.624
lclavicle -4.76338e-014 -1.39149e-015
lhumerus -20.5065 -18.9568 101.115
lradius 97.0662
lwrist 78.3125
lhand -15.2611 -13.0945
lfingers 7.12502
lthumb 10.9129 16.6019
rfemur 0 0 0
rtibia 0
rfoot 0 0
rtoes 0
lfemur 18.9792 -6.98603 -12.081
ltibia -19.7471
lfoot -2.0165 19.9308
ltoes -13.3815
290
root -0.973637 18.1627 5.7958 -1.25396 1.15709 -5.05191
lowerback 3.56123 1.98855 3.17742
upperback 0.900584 2.7792 1.14845
thorax -0.976071 1.38376 -0.718836
lowerneck -9.58354 3.40488 1.98586
upperneck 32.9536 8.31605 -10.7378
head 13.2336 2.64712 -3.38667
rclavicle 2.60222e-014 1.98785e-016
rhumerus -18.5394 40.8381 -95.6804
rradius 102.65
rwrist -14.2985
rhand -33.9797 -33.3834
rfingers 7.12502
rthumb -7.15997 -423.242
lclavicle 2.60222e-014 1.98785e-016
lhumerus -20.47 -18.9386 101.093
lradius 97.0643
lwrist 78.2628
lhand -15.3266 -13.0204
lfingers 7.12502
lthumb 10.8498 16.6793
rfemur 0 0 0
rtibia 0
rfoot 0 0
rtoes 0
lfemur 19.0084 -7.0225 -12.082
ltibia -19.7848
lfoot -1.92878 19.8848
ltoes -13.6557
